<svg width="240" height="240" viewBox="0 0 240 240" fill="none" xmlns="http://www.w3.org/2000/svg">
<path d="M35.7848 142.208C35.7848 142.536 36.0516 142.805 36.3778 142.805H70.7487C71.0748 142.805 71.3417 142.536 71.3417 142.208V113.822C71.3417 113.657 71.2089 113.523 71.0452 113.523H36.3778C36.0516 113.523 35.7848 113.792 35.7848 114.12V142.208Z" fill="white"/>
<path d="M36.6711 142.805H70.9754C71.4649 142.805 71.8632 142.404 71.8632 141.911V113.596C71.8632 113.267 71.5976 113 71.2713 113H36.6711C36.1816 113 35.7833 113.401 35.7833 113.894V141.911C35.7833 142.404 36.1816 142.805 36.6711 142.805ZM71.2713 113.596V141.911C71.2713 142.076 71.1386 142.209 70.9754 142.209H36.6711C36.5079 142.209 36.3752 142.076 36.3752 141.911V113.894C36.3752 113.729 36.5079 113.596 36.6711 113.596H71.2713Z" fill="#FF470D"/>
<path d="M38.9934 140.191H68.1276C68.4567 140.191 68.7245 139.924 68.7245 139.596V121.031C68.7245 120.867 68.6558 120.713 68.536 120.608C68.4163 120.503 68.2544 120.455 68.0914 120.477C68.0909 120.477 67.9777 120.491 67.7845 120.491C65.9046 120.491 64.3752 118.966 64.3752 117.092C64.3752 116.894 64.3911 116.77 64.3913 116.769C64.4132 116.607 64.3657 116.446 64.2608 116.326C64.1559 116.206 64.0013 116.137 63.8369 116.137H43.3554C43.191 116.137 43.0365 116.206 42.9315 116.326C42.8265 116.446 42.7791 116.607 42.8011 116.77C42.8011 116.77 42.817 116.894 42.817 117.092C42.817 118.966 41.2876 120.491 39.4079 120.491C39.1942 120.491 39.0384 120.469 39.0334 120.468C38.8708 120.444 38.7075 120.49 38.5867 120.594C38.4658 120.698 38.3965 120.852 38.3965 121.017V139.596C38.3965 139.924 38.6643 140.191 38.9934 140.191H38.9934ZM68.1276 121.071V139.596H38.9934V121.063C39.0663 121.071 39.2183 121.086 39.4078 121.086C41.6168 121.086 43.4139 119.294 43.4139 117.092C43.4139 116.922 43.4037 116.795 43.3974 116.733H63.7946C63.7884 116.795 63.7782 116.922 63.7782 117.092C63.7782 119.294 65.5753 121.086 67.7843 121.086C67.9509 121.086 68.0688 121.077 68.1275 121.071H68.1276Z" fill="#FF470D"/>
<path d="M26.9597 121.889H61.3306C61.6581 121.889 61.9236 122.157 61.9236 122.487V150.574C61.9236 150.904 61.6581 151.171 61.3306 151.171H26.9597C26.6322 151.171 26.3667 150.904 26.3667 150.574V122.487C26.3667 122.157 26.6322 121.889 26.9597 121.889Z" fill="white"/>
<path d="M27.2551 151.171H61.5593C62.0489 151.171 62.4471 150.77 62.4471 150.277V122.26C62.4471 121.767 62.0489 121.366 61.5593 121.366H27.2551C26.7656 121.366 26.3673 121.767 26.3673 122.26V150.277C26.3673 150.77 26.7656 151.171 27.2551 151.171ZM61.5593 121.962C61.7226 121.962 61.8553 122.096 61.8553 122.26V150.277C61.8553 150.442 61.7226 150.575 61.5593 150.575H27.2551C27.0919 150.575 26.9592 150.442 26.9592 150.277V122.26C26.9592 122.096 27.0919 121.962 27.2551 121.962H61.5593Z" fill="#FF470D"/>
<path d="M29.5793 148.557H58.7135C59.0426 148.557 59.3104 148.29 59.3104 147.962V129.397C59.3104 129.233 59.2417 129.079 59.122 128.974C59.0023 128.87 58.8404 128.821 58.6774 128.843C58.6769 128.843 58.5637 128.857 58.3704 128.857C56.4906 128.857 54.9612 127.332 54.9612 125.458C54.9612 125.26 54.9771 125.137 54.9773 125.135C54.9992 124.973 54.9516 124.812 54.8466 124.692C54.7417 124.572 54.5873 124.504 54.4229 124.504H33.9413C33.7769 124.504 33.6225 124.572 33.5175 124.692C33.4126 124.812 33.3649 124.973 33.3869 125.136C33.3869 125.137 33.403 125.26 33.403 125.458C33.403 127.332 31.8736 128.857 29.9937 128.857C29.7801 128.857 29.6243 128.835 29.6193 128.834C29.4566 128.81 29.2934 128.856 29.1726 128.96C29.0518 129.064 28.9825 129.218 28.9825 129.383V147.962C28.9825 148.29 29.2503 148.557 29.5794 148.557L29.5793 148.557ZM58.7135 129.437V147.962H29.5793V129.429C29.6523 129.437 29.8042 129.452 29.9937 129.452C32.2026 129.452 33.9998 127.66 33.9998 125.458C33.9998 125.288 33.9896 125.161 33.9833 125.099H54.3807C54.3743 125.161 54.3641 125.288 54.3641 125.458C54.3641 127.66 56.1613 129.452 58.3703 129.452C58.5368 129.452 58.6547 129.443 58.7134 129.437H58.7135Z" fill="#FF470D"/>
<path d="M48.1925 179.798H18.525V143.546C18.525 139.4 21.9107 136.008 26.0487 136.008H93.6189C97.7569 136.008 101.143 139.4 101.143 143.546V187.557C101.143 191.703 97.7569 195.095 93.6189 195.095H26.0487C23.7992 195.095 21.7719 194.093 20.3901 192.511H48.1925C51.5712 192.511 54.3357 189.741 54.3357 186.356V185.953C54.3357 182.568 51.5712 179.798 48.1925 179.798V179.798ZM90.7102 147.856C90.7102 147.399 90.3374 147.026 89.8819 147.026H30.068C29.6125 147.026 29.2397 147.399 29.2397 147.856V148.315C29.2397 148.771 29.6124 149.145 30.068 149.145H89.8819C90.3374 149.145 90.7102 148.771 90.7102 148.315V147.856ZM89.8819 160.304C90.3374 160.304 90.7102 159.931 90.7102 159.474V159.015C90.7102 158.559 90.3374 158.185 89.8819 158.185H30.068C29.6125 158.185 29.2397 158.559 29.2397 159.015V159.474C29.2397 159.931 29.6124 160.304 30.068 160.304H89.8819Z" fill="white"/>
<path d="M25.7548 195.618H93.3901C97.6648 195.618 101.143 192.132 101.143 187.847V143.778C101.143 139.493 97.6648 136.008 93.3901 136.008H25.7548C21.48 136.008 18.0023 139.493 18.0023 143.778V180.3H47.9199C51.1884 180.3 53.8475 182.965 53.8475 186.241V186.645C53.8475 189.921 51.1883 192.586 47.9199 192.586H19.6024L19.924 192.955C21.4021 194.647 23.5273 195.618 25.7548 195.618ZM93.3901 136.452C97.4205 136.452 100.7 139.738 100.7 143.778V187.847C100.7 191.887 97.4205 195.174 93.3901 195.174H25.7548C23.8223 195.174 21.9711 194.398 20.6018 193.03H47.9198C51.4326 193.03 54.2905 190.166 54.2905 186.645V186.241C54.2905 182.72 51.4326 179.856 47.9198 179.856H18.4453V143.778C18.4453 139.738 21.7243 136.452 25.7547 136.452H93.39H93.3901ZM29.778 160.781H89.6495C90.2288 160.781 90.7002 160.308 90.7002 159.728V159.268C90.7002 158.687 90.2289 158.215 89.6495 158.215H29.778C29.1987 158.215 28.7273 158.687 28.7273 159.268V159.728C28.7273 160.308 29.1987 160.781 29.778 160.781ZM89.6495 158.659C89.9845 158.659 90.2571 158.932 90.2571 159.268V159.728C90.2571 160.063 89.9845 160.337 89.6495 160.337H29.778C29.4429 160.337 29.1704 160.063 29.1704 159.728V159.268C29.1704 158.932 29.4429 158.659 29.778 158.659H89.6495ZM29.778 149.606H89.6495C90.2288 149.606 90.7002 149.134 90.7002 148.553V148.093C90.7002 147.513 90.2289 147.04 89.6495 147.04H29.778C29.1987 147.04 28.7273 147.513 28.7273 148.093V148.553C28.7273 149.134 29.1987 149.606 29.778 149.606ZM89.6495 147.484C89.9845 147.484 90.2571 147.758 90.2571 148.093V148.553C90.2571 148.889 89.9845 149.162 89.6495 149.162H29.778C29.4429 149.162 29.1704 148.889 29.1704 148.553V148.093C29.1704 147.758 29.4429 147.484 29.778 147.484H89.6495Z" fill="#FF470D"/>
<path d="M29.8132 146.988H89.852C90.3112 146.988 90.6835 147.355 90.6835 147.807V148.261C90.6835 148.713 90.3112 149.08 89.852 149.08H29.8132C29.354 149.08 28.9818 148.713 28.9818 148.261V147.807C28.9818 147.355 29.354 146.988 29.8132 146.988Z" fill="white"/>
<path d="M29.5138 149.603H89.6285C90.2102 149.603 90.6835 149.121 90.6835 148.53V148.061C90.6835 147.47 90.2103 146.988 89.6285 146.988H29.5138C28.9321 146.988 28.4589 147.47 28.4589 148.061V148.53C28.4589 149.121 28.9321 149.603 29.5138 149.603ZM89.6285 147.441C89.9649 147.441 90.2386 147.719 90.2386 148.061V148.53C90.2386 148.872 89.9649 149.15 89.6285 149.15H29.5138C29.1774 149.15 28.9037 148.872 28.9037 148.53V148.061C28.9037 147.719 29.1773 147.441 29.5138 147.441H89.6285Z" fill="#FF470D"/>
<path d="M29.8132 157.969H89.852C90.3112 157.969 90.6835 158.336 90.6835 158.788V159.241C90.6835 159.694 90.3112 160.061 89.852 160.061H29.8132C29.354 160.061 28.9818 159.694 28.9818 159.241V158.788C28.9818 158.336 29.354 157.969 29.8132 157.969Z" fill="white"/>
<path d="M29.5138 160.583H89.6285C90.2102 160.583 90.6835 160.102 90.6835 159.511V159.042C90.6835 158.45 90.2103 157.969 89.6285 157.969H29.5138C28.9321 157.969 28.4589 158.45 28.4589 159.042V159.511C28.4589 160.102 28.9321 160.583 29.5138 160.583ZM89.6285 158.422C89.9649 158.422 90.2386 158.7 90.2386 159.042V159.511C90.2386 159.853 89.9649 160.131 89.6285 160.131H29.5138C29.1774 160.131 28.9037 159.853 28.9037 159.511V159.042C28.9037 158.7 29.1773 158.422 29.5138 158.422H89.6285Z" fill="#FF470D"/>
<path d="M18.5232 179.931V187.59C18.5232 189.458 19.2229 191.17 20.375 192.48H47.9804C51.3352 192.48 54.0801 189.746 54.0801 186.404V186.006C54.0801 182.665 51.3352 179.931 47.9804 179.931H18.5232Z" fill="white"/>
<path d="M19.9768 193.003H47.746C51.2386 193.003 54.0801 190.161 54.0801 186.667V186.267C54.0801 182.773 51.2386 179.931 47.746 179.931H18.0003V187.86C18.0003 189.721 18.6788 191.521 19.9109 192.928L19.9767 193.003H19.9768ZM47.746 180.371C50.9958 180.371 53.6396 183.016 53.6396 186.267V186.667C53.6396 189.918 50.9957 192.562 47.746 192.562H20.1775C19.0569 191.247 18.4409 189.581 18.4409 187.86V180.371H47.7461H47.746Z" fill="#FF470D"/>
<path d="M29.8132 146.988H89.852C90.3112 146.988 90.6835 147.355 90.6835 147.807V148.261C90.6835 148.713 90.3112 149.08 89.852 149.08H29.8132C29.354 149.08 28.9818 148.713 28.9818 148.261V147.807C28.9818 147.355 29.354 146.988 29.8132 146.988Z" fill="white"/>
<path d="M29.5138 149.603H89.6285C90.2102 149.603 90.6835 149.121 90.6835 148.53V148.061C90.6835 147.47 90.2103 146.988 89.6285 146.988H29.5138C28.9321 146.988 28.4589 147.47 28.4589 148.061V148.53C28.4589 149.121 28.9321 149.603 29.5138 149.603ZM89.6285 147.441C89.9649 147.441 90.2386 147.719 90.2386 148.061V148.53C90.2386 148.872 89.9649 149.15 89.6285 149.15H29.5138C29.1774 149.15 28.9037 148.872 28.9037 148.53V148.061C28.9037 147.719 29.1773 147.441 29.5138 147.441H89.6285Z" fill="#FF470D"/>
<path d="M29.8132 157.969H89.852C90.3112 157.969 90.6835 158.336 90.6835 158.788V159.241C90.6835 159.694 90.3112 160.061 89.852 160.061H29.8132C29.354 160.061 28.9818 159.694 28.9818 159.241V158.788C28.9818 158.336 29.354 157.969 29.8132 157.969Z" fill="white"/>
<path d="M29.5138 160.583H89.6285C90.2102 160.583 90.6835 160.102 90.6835 159.511V159.042C90.6835 158.45 90.2103 157.969 89.6285 157.969H29.5138C28.9321 157.969 28.4589 158.45 28.4589 159.042V159.511C28.4589 160.102 28.9321 160.583 29.5138 160.583ZM89.6285 158.422C89.9649 158.422 90.2386 158.7 90.2386 159.042V159.511C90.2386 159.853 89.9649 160.131 89.6285 160.131H29.5138C29.1774 160.131 28.9037 159.853 28.9037 159.511V159.042C28.9037 158.7 29.1773 158.422 29.5138 158.422H89.6285Z" fill="#FF470D"/>
<path d="M18.5232 179.931V187.59C18.5232 189.458 19.2229 191.17 20.375 192.48H47.9804C51.3352 192.48 54.0801 189.746 54.0801 186.404V186.006C54.0801 182.665 51.3352 179.931 47.9804 179.931H18.5232Z" fill="white"/>
<path d="M19.9768 193.003H47.746C51.2386 193.003 54.0801 190.161 54.0801 186.667V186.267C54.0801 182.773 51.2386 179.931 47.746 179.931H18.0003V187.86C18.0003 189.721 18.6788 191.521 19.9109 192.928L19.9767 193.003H19.9768ZM47.746 180.371C50.9958 180.371 53.6396 183.016 53.6396 186.267V186.667C53.6396 189.918 50.9957 192.562 47.746 192.562H20.1775C19.0569 191.247 18.4409 189.581 18.4409 187.86V180.371H47.7461H47.746Z" fill="#FF470D"/>
<path d="M46.7591 189.343C45.0264 189.343 43.6217 187.938 43.6217 186.205C43.6217 184.473 45.0264 183.068 46.7591 183.068C48.4918 183.068 49.8965 184.473 49.8965 186.205C49.8965 187.938 48.4918 189.343 46.7591 189.343Z" fill="white"/>
<path d="M46.4977 189.866C48.3718 189.866 49.8965 188.341 49.8965 186.467C49.8965 184.593 48.3718 183.068 46.4977 183.068C44.6236 183.068 43.0988 184.593 43.0988 186.467C43.0988 188.341 44.6236 189.866 46.4977 189.866ZM46.4977 183.502C48.1323 183.502 49.4622 184.832 49.4622 186.467C49.4622 188.102 48.1323 189.431 46.4977 189.431C44.863 189.431 43.5331 188.102 43.5331 186.467C43.5331 184.832 44.863 183.502 46.4977 183.502Z" fill="#FF470D"/>
<path d="M63.8302 37.2453C67.9696 32.7835 67.7063 25.8089 63.242 21.667C58.7776 17.5252 51.8029 17.7846 47.6634 22.2464C43.5239 26.7082 43.7873 33.6828 48.2516 37.8246C52.7159 41.9665 59.6907 41.7071 63.8302 37.2453Z" fill="white"/>
<path d="M47.8336 21.7561L48.2427 21.3697C49.2181 20.4952 50.334 19.804 51.5661 19.311L52.097 19.1136C53.3437 18.6846 54.6393 18.4809 55.9557 18.5067L56.499 18.5298C57.7619 18.6154 58.9936 18.9128 60.1677 19.4158L60.664 19.6418C61.6434 20.1177 62.5399 20.7278 63.3401 21.4612L63.7322 21.8383C64.7683 22.8836 65.5764 24.1088 66.1393 25.4796L66.1427 25.4787L66.1794 25.5713L66.2167 25.6646L66.2133 25.6654C66.6837 26.8694 66.9439 28.1216 66.9834 29.3985L66.9865 29.9609C66.9623 31.2321 66.7258 32.4764 66.2823 33.6662L66.0802 34.1727C65.6326 35.2184 65.0387 36.1777 64.3099 37.0342L63.989 37.3945L63.659 37.7358C62.7243 38.6622 61.6464 39.4082 60.4482 39.9575L59.9265 40.1809C58.6945 40.6739 57.4097 40.9431 56.1 40.9829L55.5369 40.9853C54.2658 40.9603 53.0221 40.723 51.8322 40.279L51.325 40.0762C49.9832 39.5013 48.7837 38.686 47.7604 37.6537L47.374 37.2446C46.499 36.2688 45.8069 35.1529 45.3132 33.9206L45.115 33.389C44.6855 32.1424 44.4811 30.8471 44.5061 29.5311L44.5293 28.9878C44.614 27.7248 44.9107 26.4924 45.4131 25.3185L45.6398 24.8229C46.1945 23.6807 46.931 22.651 47.8336 21.7561ZM47.5169 22.7278C46.9205 23.429 46.4122 24.2106 46.0053 25.0593L45.8099 25.4895C44.7454 27.9772 44.649 30.7139 45.526 33.2548L45.7142 33.7598C47.9308 39.2926 54.2347 41.9938 59.7664 39.7806L60.2622 39.5678C62.7053 38.4492 64.618 36.4901 65.6827 34.0024L65.883 33.5022C66.8186 30.9833 66.7851 28.245 65.7784 25.7322L65.5656 25.2364C64.5202 22.9555 62.7436 21.1359 60.4881 20.0367L59.998 19.8125C57.5097 18.7465 54.7724 18.6484 52.2319 19.5238L51.7262 19.7114C50.2185 20.3146 48.8947 21.2285 47.8226 22.384L47.5169 22.7278Z" fill="#FF470D" stroke="#FF470D" stroke-width="0.2"/>
<path d="M48.8277 23.4039C49.626 22.5435 50.5976 21.8218 51.7167 21.2993L52.2057 21.0882C56.8547 19.2283 62.1326 21.3691 64.2061 25.8688L64.3968 26.3109C65.3285 28.6365 65.2986 31.1844 64.3133 33.4868L64.1184 33.9121C63.1659 35.8681 61.589 37.4084 59.6107 38.3142L59.1809 38.4989L58.742 38.6619C56.5379 39.4214 54.164 39.3362 52.0049 38.4113L51.5795 38.2165C49.6223 37.2627 48.0809 35.6846 47.1738 33.7054L46.9891 33.2756C45.5979 29.8029 46.4378 25.98 48.8277 23.4039Z" stroke="#FF470D" stroke-width="0.5"/>
<path d="M54.5868 25.9513C55.21 25.7061 55.8352 25.5735 56.4622 25.5535L56.9235 26.7051L56.3958 26.9162C56.1704 26.6313 55.9257 26.4477 55.6619 26.3655C55.3981 26.2835 55.1023 26.3018 54.7748 26.4205L55.8021 28.9848C56.395 29.0239 56.8535 29.0879 57.1777 29.1767C57.5019 29.2656 57.7761 29.3992 58.0001 29.5776C58.2241 29.7561 58.3989 30.0016 58.5242 30.3144C58.7562 30.8937 58.7736 31.4054 58.5762 31.8493C58.3789 32.2932 57.9738 32.6666 57.3613 32.9694L57.7586 33.961L57.2043 34.1829L56.8112 33.2019C56.4921 33.3214 56.1405 33.4187 55.7563 33.4941C55.3721 33.5695 55.0329 33.6104 54.7386 33.6168L54.2687 32.4439L54.8017 32.2306C55.0337 32.5626 55.2927 32.7693 55.5789 32.8506C55.865 32.932 56.2153 32.8981 56.6297 32.7487L55.5233 29.9871L55.3644 29.9765C54.8091 29.9389 54.3858 29.8804 54.0943 29.8011C53.8029 29.7219 53.5546 29.6017 53.3498 29.4402C53.145 29.2789 52.9864 29.0578 52.8739 28.7771C52.7657 28.507 52.7185 28.2454 52.7326 27.9923C52.7466 27.7392 52.8092 27.5018 52.9204 27.28C53.0315 27.0582 53.1844 26.8558 53.3791 26.6727C53.5737 26.4897 53.7958 26.3339 54.0453 26.2052L53.6373 25.1869L54.1917 24.9651L54.5868 25.9513ZM56.161 29.9732L57.1776 32.5109C57.4939 32.3432 57.6999 32.1216 57.7957 31.8461C57.8915 31.5707 57.8704 31.2605 57.7322 30.9158C57.6098 30.6102 57.4248 30.3852 57.1773 30.2408C56.9299 30.0966 56.5911 30.0074 56.161 29.9732ZM55.1623 28.9934L54.2268 26.6583C53.9368 26.8198 53.7374 27.0345 53.6285 27.3028C53.5195 27.5713 53.5227 27.8494 53.638 28.1372C53.7534 28.4251 53.9282 28.6326 54.1625 28.7594C54.3967 28.8863 54.7301 28.9643 55.1623 28.9934Z" fill="#FF8600"/>
<path d="M199.114 104.328C205.181 104.998 210.643 100.62 211.314 94.5491C211.984 88.4786 207.609 83.0143 201.542 82.3443C195.475 81.6743 190.013 86.0522 189.343 92.1227C188.672 98.1932 193.047 103.657 199.114 104.328Z" fill="white"/>
<path d="M199.102 104.446C198.946 104.429 198.79 104.408 198.634 104.384C197.156 104.158 195.756 103.642 194.472 102.851C193.189 102.06 192.098 101.041 191.231 99.8227C190.394 98.6457 189.799 97.3329 189.464 95.921C189.129 94.5091 189.069 93.069 189.288 91.6408C189.514 90.1621 190.03 88.7611 190.821 87.4766C191.611 86.1921 192.63 85.1009 193.848 84.2333C195.024 83.3954 196.336 82.8003 197.748 82.4646C199.159 82.1289 200.598 82.0697 202.025 82.2879C203.503 82.5141 204.903 83.0299 206.187 83.8209C207.471 84.6119 208.561 85.6309 209.428 86.8495C210.266 88.0265 210.86 89.3392 211.196 90.7511C211.531 92.163 211.59 93.6031 211.372 95.0313C211.145 96.51 210.63 97.911 209.839 99.1955L209.74 99.1346L209.839 99.1955C209.048 100.48 208.03 101.571 206.812 102.439C205.635 103.277 204.323 103.872 202.912 104.208C201.655 104.507 200.375 104.586 199.102 104.446L199.102 104.446ZM201.539 82.4551C200.305 82.3188 199.044 82.395 197.801 82.6907C194.959 83.3668 192.55 85.1098 191.018 87.5985C187.856 92.7361 189.46 99.4896 194.594 102.653C197.081 104.186 200.016 104.658 202.858 103.981C205.7 103.305 208.109 101.562 209.641 99.0737C211.173 96.585 211.645 93.6484 210.97 90.8049C210.294 87.9615 208.552 85.5514 206.065 84.0189C204.666 83.1567 203.125 82.6303 201.539 82.4551L201.539 82.4551Z" fill="#FF470D"/>
<path d="M199.168 103.156C197.734 102.997 196.342 102.522 195.077 101.742C192.829 100.357 191.255 98.1792 190.645 95.6094C190.034 93.0395 190.461 90.3856 191.845 88.1363C193.23 85.8871 195.407 84.3119 197.975 83.7009C200.544 83.0898 203.196 83.5161 205.444 84.9012C207.692 86.2862 209.266 88.4643 209.876 91.0342C210.487 93.604 210.06 96.258 208.676 98.5072C207.291 100.756 205.114 102.332 202.546 102.943C201.422 103.21 200.282 103.279 199.168 103.156ZM201.335 83.7256C197.74 83.3285 194.063 84.9773 192.043 88.2582C190.691 90.4546 190.275 93.0462 190.871 95.5556C191.467 98.0651 193.004 100.192 195.199 101.544C197.394 102.897 199.984 103.313 202.492 102.717C205 102.12 207.126 100.582 208.478 98.3853C211.269 93.8513 209.853 87.8911 205.322 85.099C204.07 84.3274 202.709 83.8772 201.335 83.7256Z" fill="#FF8600"/>
<path d="M201.335 83.7256C197.74 83.3285 194.063 84.9773 192.043 88.2582C190.691 90.4546 190.275 93.0462 190.871 95.5556C191.467 98.0651 193.004 100.192 195.199 101.544C197.394 102.897 199.984 103.313 202.492 102.717C205 102.12 207.126 100.582 208.478 98.3853C211.269 93.8513 209.853 87.8911 205.322 85.099C204.07 84.3274 202.709 83.8772 201.335 83.7256Z" fill="#FF8600"/>
<path d="M202.695 90.136C203.265 90.4917 203.745 90.9161 204.136 91.4093L203.484 92.4688L202.998 92.1698C203.093 91.818 203.095 91.5112 203.004 91.2496C202.912 90.988 202.721 90.7607 202.43 90.5677L200.977 92.927C201.3 93.428 201.522 93.8356 201.644 94.1499C201.766 94.4642 201.822 94.7648 201.813 95.0519C201.802 95.3389 201.709 95.6264 201.532 95.9141C201.204 96.4471 200.802 96.7667 200.326 96.8728C199.851 96.979 199.308 96.8757 198.698 96.5631L198.137 97.4754L197.627 97.1613L198.182 96.2588C197.896 96.073 197.607 95.8479 197.317 95.5834C197.027 95.3189 196.791 95.07 196.61 94.8367L197.275 93.7576L197.765 94.0597C197.636 94.4448 197.624 94.777 197.729 95.0561C197.835 95.3353 198.071 95.5972 198.439 95.8418L200.003 93.301L199.917 93.1667C199.616 92.6968 199.41 92.3209 199.3 92.0387C199.189 91.7566 199.138 91.4848 199.146 91.2233C199.153 90.962 199.237 90.7021 199.396 90.4438C199.549 90.1953 199.731 90.001 199.944 89.8613C200.156 89.7214 200.384 89.63 200.63 89.5871C200.875 89.5442 201.129 89.5464 201.393 89.5939C201.656 89.6414 201.915 89.7273 202.167 89.8514L202.744 88.9145L203.254 89.2287L202.695 90.1361L202.695 90.136ZM200.395 93.8065L198.958 96.1413C199.282 96.2959 199.584 96.3295 199.863 96.2421C200.142 96.1548 200.379 95.9525 200.574 95.6353C200.747 95.3541 200.818 95.0707 200.787 94.7851C200.755 94.4996 200.625 94.1734 200.395 93.8065ZM200.588 92.4167L201.911 90.2683C201.607 90.1311 201.315 90.0987 201.034 90.1712C200.753 90.2438 200.531 90.4124 200.368 90.6773C200.204 90.9421 200.142 91.2069 200.18 91.4714C200.217 91.7359 200.353 92.0511 200.588 92.4167L200.588 92.4167Z" fill="white"/>
<rect x="79.5" y="11.5" width="95" height="183.8" rx="15.5" fill="white" stroke="#FF8600"/>
<path d="M95.8008 16.3H158.201C164.552 16.3003 169.701 21.4489 169.701 27.8V179C169.701 185.351 164.552 190.5 158.201 190.5H95.8008C89.4496 190.5 84.3009 185.351 84.3008 179V27.8C84.3008 21.4488 89.4495 16.3 95.8008 16.3Z" stroke="#FF8600"/>
<path d="M101.4 16.2L102.732 20.0281C103.851 23.2444 106.883 25.4 110.288 25.4H144.513C147.918 25.4 150.95 23.2444 152.069 20.0281L153.4 16.2" stroke="#FF8600"/>
<rect x="117.4" y="19.8" width="21.6" height="1.6" rx="0.8" fill="#FF470D"/>
<circle cx="112.6" cy="20.6" r="1.6" fill="#FF470D"/>
<circle cx="142.999" cy="20.6" r="0.8" fill="#FF470D"/>
<path d="M126.803 62.4966C127.146 62.4121 127.503 62.401 127.85 62.4644L127.997 62.4966C128.31 62.5737 128.627 62.7531 129.057 63.1206C129.274 63.3067 129.511 63.5315 129.781 63.8022L130.713 64.7593L130.862 64.9146C131.582 65.6618 132.055 66.1621 132.587 66.4673L132.819 66.5864C133.079 66.7038 133.352 66.7893 133.632 66.8403L133.914 66.8794C134.433 66.931 134.956 66.8258 135.666 66.6313L136.444 66.4097L136.651 66.3501C137.637 66.0663 138.342 65.8642 138.905 65.7593C139.391 65.6687 139.731 65.6599 140.016 65.7192L140.135 65.7485C140.474 65.847 140.788 66.0165 141.057 66.2446L141.169 66.3462C141.402 66.5697 141.586 66.8836 141.774 67.4165C141.87 67.6863 141.962 67.999 142.061 68.3687L142.39 69.6636L142.441 69.8726C142.691 70.8796 142.851 71.5496 143.158 72.0796L143.3 72.2983C143.466 72.5301 143.66 72.741 143.877 72.9253L144.102 73.1001C144.525 73.4041 145.03 73.5747 145.742 73.7612L146.528 73.9585L146.737 74.0112C147.732 74.2581 148.445 74.4349 148.984 74.6255C149.45 74.7901 149.749 74.9522 149.966 75.146L150.055 75.231C150.299 75.486 150.487 75.7897 150.605 76.1216L150.651 76.2651C150.741 76.5751 150.744 76.9399 150.641 77.4956C150.588 77.777 150.511 78.0938 150.412 78.4634L150.05 79.7485L149.99 79.9556C149.703 80.9525 149.507 81.6124 149.508 82.2251L149.521 82.4858C149.549 82.7697 149.611 83.0489 149.707 83.3169L149.813 83.5815C150.028 84.0565 150.381 84.4567 150.904 84.9741L151.486 85.5376L151.641 85.687C152.379 86.3985 152.907 86.9083 153.279 87.3433C153.601 87.7189 153.779 88.0083 153.87 88.2847L153.903 88.4028C153.988 88.7462 153.999 89.103 153.936 89.4497L153.903 89.5972C153.826 89.9106 153.647 90.2273 153.279 90.6567C153.093 90.8743 152.868 91.1107 152.598 91.3813L151.641 92.313L151.486 92.4624C150.739 93.1825 150.238 93.6555 149.933 94.187L149.813 94.4194C149.696 94.6793 149.611 94.9521 149.56 95.2319L149.521 95.5142C149.469 96.033 149.574 96.5561 149.769 97.2661L149.99 98.0444L150.05 98.2515C150.334 99.2369 150.536 99.9425 150.641 100.505C150.731 100.991 150.74 101.331 150.681 101.616L150.651 101.735C150.553 102.074 150.383 102.388 150.155 102.657L150.055 102.769C149.831 103.002 149.517 103.186 148.984 103.375C148.714 103.47 148.401 103.562 148.031 103.661L146.737 103.99L146.528 104.042C145.521 104.291 144.85 104.451 144.32 104.758L144.102 104.9C143.87 105.066 143.66 105.26 143.476 105.477L143.3 105.702C142.996 106.125 142.825 106.631 142.639 107.342L142.441 108.128L142.39 108.337C142.143 109.333 141.965 110.045 141.774 110.584C141.61 111.051 141.448 111.349 141.254 111.566L141.169 111.655C140.914 111.9 140.61 112.087 140.278 112.206L140.135 112.251C139.825 112.341 139.461 112.344 138.905 112.241C138.624 112.188 138.306 112.111 137.937 112.012L136.651 111.65L136.444 111.59C135.447 111.303 134.788 111.107 134.175 111.108L133.914 111.121C133.63 111.149 133.351 111.211 133.083 111.307L132.819 111.414C132.344 111.628 131.943 111.981 131.426 112.504L130.862 113.086L130.713 113.241C130.001 113.979 129.492 114.507 129.057 114.879C128.681 115.201 128.392 115.379 128.115 115.47L127.997 115.503C127.654 115.588 127.297 115.599 126.95 115.536L126.803 115.503C126.489 115.426 126.173 115.247 125.743 114.879C125.526 114.693 125.289 114.469 125.019 114.198L124.087 113.241L123.938 113.086C123.217 112.339 122.744 111.838 122.213 111.533L121.981 111.414C121.721 111.296 121.448 111.211 121.168 111.16L120.886 111.121C120.367 111.069 119.844 111.174 119.134 111.369L118.355 111.59L118.148 111.65C117.163 111.934 116.458 112.136 115.896 112.241C115.409 112.331 115.069 112.34 114.784 112.281L114.665 112.251C114.326 112.153 114.012 111.984 113.743 111.755L113.631 111.655C113.398 111.431 113.214 111.117 113.025 110.584C112.93 110.315 112.838 110.001 112.739 109.631L112.411 108.337L112.358 108.128C112.108 107.121 111.949 106.451 111.642 105.92L111.5 105.702C111.334 105.47 111.14 105.26 110.923 105.076L110.698 104.9C110.275 104.596 109.769 104.425 109.058 104.239L108.272 104.042L108.063 103.99C107.068 103.743 106.356 103.565 105.816 103.375C105.35 103.21 105.051 103.048 104.834 102.854L104.746 102.769C104.501 102.514 104.314 102.21 104.195 101.878L104.148 101.735C104.059 101.425 104.056 101.061 104.159 100.505C104.212 100.224 104.288 99.9065 104.388 99.5366L104.75 98.2515L104.81 98.0444C105.097 97.0475 105.294 96.3877 105.293 95.7749L105.279 95.5142C105.251 95.2302 105.189 94.9511 105.093 94.6831L104.986 94.4194C104.772 93.9443 104.419 93.5435 103.896 93.0259L103.314 92.4624L103.159 92.313C102.421 91.6015 101.893 91.0918 101.521 90.6567C101.199 90.281 101.021 89.9918 100.93 89.7153L100.896 89.5972C100.812 89.2538 100.801 88.897 100.864 88.5503L100.896 88.4028C100.974 88.0895 101.153 87.7727 101.521 87.3433C101.707 87.1257 101.931 86.8893 102.202 86.6187L103.159 85.687L103.314 85.5376C104.062 84.8177 104.562 84.3445 104.867 83.813L104.986 83.5815C105.104 83.3215 105.189 83.0481 105.24 82.7681L105.279 82.4858C105.331 81.967 105.226 81.4439 105.031 80.7339L104.81 79.9556L104.75 79.7485C104.466 78.7633 104.264 78.0584 104.159 77.4956C104.069 77.0092 104.06 76.6693 104.119 76.3843L104.148 76.2651C104.247 75.9257 104.416 75.6117 104.645 75.3433L104.746 75.231C104.97 74.9982 105.284 74.8136 105.816 74.6255C106.086 74.5302 106.399 74.4383 106.769 74.3394L108.063 74.0112L108.272 73.9585C109.279 73.7087 109.949 73.5493 110.479 73.2417L110.698 73.1001C110.93 72.9336 111.141 72.74 111.325 72.5229L111.5 72.2983C111.804 71.8749 111.975 71.3695 112.161 70.6577L112.358 69.8726L112.411 69.6636C112.658 68.6684 112.835 67.9564 113.025 67.4165C113.19 66.9501 113.352 66.6512 113.546 66.4341L113.631 66.3462C113.886 66.1015 114.19 65.9139 114.521 65.7954L114.665 65.7485C114.975 65.6586 115.34 65.6557 115.896 65.7593C116.177 65.8117 116.494 65.8886 116.863 65.9878L118.148 66.3501L118.355 66.4097C119.352 66.6968 120.012 66.8943 120.625 66.8931L120.886 66.8794C121.17 66.8512 121.449 66.7886 121.717 66.6929L121.981 66.5864C122.456 66.3717 122.857 66.0187 123.374 65.4956L123.938 64.9146L124.087 64.7593C124.798 64.0208 125.308 63.4929 125.743 63.1206C126.119 62.7991 126.408 62.6208 126.685 62.5298L126.803 62.4966Z" fill="white" stroke="#FF470D"/>
<path d="M126.386 66.9348C126.951 66.6836 127.587 66.6526 128.17 66.8411L128.416 66.9348C128.614 67.0229 128.823 67.168 129.112 67.4309C129.258 67.5637 129.418 67.7203 129.603 67.9065L130.238 68.5618C130.731 69.0735 131.056 69.4142 131.4 69.6555L131.55 69.7532C132.046 70.053 132.607 70.224 133.184 70.2532L133.432 70.2571C133.787 70.2499 134.144 70.1686 134.63 70.0334L135.163 69.8811C135.836 69.6873 136.317 69.549 136.703 69.4651C136.989 69.4028 137.204 69.3755 137.384 69.3752L137.555 69.384C138.17 69.4492 138.736 69.7391 139.146 70.1936L139.312 70.3987C139.44 70.5741 139.549 70.8038 139.668 71.176C139.728 71.3641 139.788 71.5799 139.854 71.8333L140.077 72.718C140.248 73.4075 140.359 73.8649 140.537 74.2463L140.618 74.4065C140.898 74.9139 141.298 75.3432 141.782 75.6565L141.995 75.7834C142.306 75.9547 142.656 76.0629 143.145 76.1887L143.683 76.3235C144.362 76.4921 144.848 76.6133 145.225 76.7336C145.504 76.823 145.703 76.9055 145.859 76.9954L146.002 77.0881C146.502 77.4522 146.847 77.9871 146.976 78.5862L147.018 78.8469C147.04 79.0626 147.019 79.3157 146.937 79.6975C146.895 79.8906 146.839 80.1078 146.77 80.3606L146.521 81.2375C146.324 81.9204 146.19 82.3719 146.153 82.7913L146.144 82.97C146.132 83.5494 146.264 84.1214 146.527 84.635L146.648 84.8508C146.832 85.1548 147.082 85.4235 147.441 85.7766L147.84 86.1624C148.344 86.6481 148.704 86.996 148.97 87.2883C149.167 87.5055 149.298 87.6773 149.389 87.8333L149.466 87.9846C149.717 88.5501 149.749 89.1858 149.561 89.7688L149.466 90.0149C149.378 90.2132 149.233 90.4218 148.97 90.7112C148.837 90.8573 148.68 91.0173 148.494 91.2014L147.84 91.8372C147.328 92.3303 146.986 92.6543 146.745 92.9993L146.648 93.1487C146.349 93.6446 146.177 94.2063 146.147 94.7825L146.144 95.0305C146.151 95.3856 146.233 95.743 146.368 96.2288L146.521 96.762C146.714 97.4347 146.853 97.916 146.937 98.302C146.999 98.5884 147.026 98.8026 147.026 98.9827L147.018 99.1536C146.952 99.7688 146.662 100.335 146.207 100.745L146.002 100.911C145.827 101.039 145.597 101.148 145.225 101.267C145.036 101.327 144.821 101.387 144.567 101.453L143.683 101.676C142.993 101.847 142.536 101.958 142.154 102.136L141.995 102.217C141.488 102.497 141.058 102.897 140.745 103.381L140.618 103.594C140.447 103.905 140.338 104.255 140.212 104.743L140.077 105.281C139.909 105.961 139.788 106.447 139.668 106.823C139.579 107.103 139.495 107.302 139.405 107.458L139.312 107.601C138.948 108.101 138.414 108.446 137.814 108.574L137.555 108.616C137.339 108.639 137.085 108.618 136.703 108.535C136.51 108.493 136.294 108.438 136.041 108.368L135.163 108.119C134.48 107.923 134.029 107.789 133.609 107.752L133.432 107.742C132.852 107.731 132.28 107.863 131.767 108.126L131.55 108.247C131.246 108.431 130.977 108.68 130.624 109.04L130.238 109.439C129.753 109.943 129.405 110.303 129.112 110.569C128.895 110.766 128.724 110.897 128.568 110.988L128.416 111.065C127.85 111.316 127.215 111.348 126.632 111.159L126.386 111.065C126.188 110.977 125.979 110.831 125.689 110.569C125.543 110.436 125.383 110.279 125.199 110.093L124.563 109.439C124.07 108.927 123.746 108.585 123.401 108.344L123.252 108.247C122.756 107.947 122.194 107.775 121.618 107.746L121.371 107.742C121.016 107.75 120.658 107.832 120.172 107.967L119.639 108.119C118.966 108.313 118.485 108.452 118.099 108.535C117.812 108.598 117.598 108.625 117.418 108.625L117.248 108.616C116.633 108.551 116.066 108.261 115.655 107.806L115.489 107.601C115.362 107.425 115.254 107.196 115.135 106.823C115.075 106.635 115.014 106.42 114.947 106.166L114.725 105.281C114.554 104.592 114.444 104.135 114.266 103.753L114.185 103.594C113.905 103.086 113.504 102.657 113.02 102.344L112.808 102.217C112.496 102.046 112.146 101.937 111.657 101.811L111.119 101.676C110.44 101.507 109.953 101.387 109.577 101.267C109.298 101.178 109.099 101.094 108.943 101.004L108.8 100.911C108.299 100.547 107.954 100.013 107.826 99.4133L107.785 99.1536C107.762 98.9378 107.783 98.6841 107.866 98.302C107.908 98.1091 107.964 97.8924 108.033 97.6399L108.282 96.762C108.479 96.0789 108.612 95.6277 108.648 95.2083L108.658 95.0305C108.67 94.4511 108.537 93.8791 108.274 93.3655L108.154 93.1487C107.971 92.8448 107.721 92.5759 107.361 92.2229L106.963 91.8372C106.459 91.3513 106.098 91.0036 105.832 90.7112C105.635 90.4944 105.504 90.323 105.414 90.1672L105.336 90.0149C105.085 89.4493 105.054 88.8137 105.242 88.2307L105.336 87.9846C105.424 87.7863 105.569 87.5776 105.832 87.2883C105.965 87.1422 106.121 86.9822 106.308 86.7981L106.963 86.1624C107.475 85.6694 107.815 85.3451 108.057 85.0002L108.154 84.8508C108.454 84.3549 108.625 83.7933 108.654 83.217L108.658 82.97C108.651 82.6147 108.57 82.2567 108.435 81.7708L108.282 81.2375C108.088 80.5648 107.95 80.0835 107.866 79.6975C107.804 79.411 107.777 79.197 107.776 79.0168L107.785 78.8469C107.85 78.2316 108.14 77.6648 108.595 77.2542L108.8 77.0881C108.975 76.9605 109.205 76.8527 109.577 76.7336C109.765 76.6735 109.981 76.6124 110.234 76.5461L111.119 76.3235C111.809 76.1525 112.266 76.0423 112.647 75.8645L112.808 75.7834C113.315 75.5038 113.744 75.1029 114.058 74.6184L114.185 74.4065C114.356 74.0953 114.464 73.7445 114.59 73.2561L114.725 72.718C114.893 72.0385 115.014 71.5523 115.135 71.176C115.224 70.8972 115.307 70.6982 115.396 70.5422L115.489 70.3987C115.853 69.8984 116.388 69.5533 116.987 69.425L117.248 69.384C117.464 69.3612 117.717 69.3821 118.099 69.4651C118.292 69.5071 118.509 69.5627 118.762 69.6321L119.639 69.8811C120.322 70.0778 120.773 70.2107 121.192 70.2473L121.371 70.2571C121.951 70.2687 122.522 70.1362 123.036 69.8733L123.252 69.7532C123.556 69.5695 123.825 69.32 124.178 68.9602L124.563 68.5618C125.049 68.0575 125.397 67.6966 125.689 67.4309C125.906 67.2337 126.078 67.1032 126.234 67.0129L126.386 66.9348Z" fill="#FF8600" stroke="white"/>
<rect x="115.707" y="88.8154" width="4.21522" height="12.2944" rx="2.10761" transform="rotate(-45 115.707 88.8154)" fill="white"/>
<rect x="136.336" y="79.6926" width="4.21522" height="21.0761" rx="2.10761" transform="rotate(45 136.336 79.6926)" fill="white"/>
<path d="M152.421 32.9078C152.593 31.6974 152.874 31.6974 153.046 32.9078C153.218 34.1181 154.349 35.249 155.559 35.4209C156.769 35.5927 156.769 35.8739 155.559 36.0458C154.349 36.2177 153.218 37.3485 153.046 38.5589C152.874 39.7693 152.593 39.7693 152.421 38.5589C152.249 37.3485 151.118 36.2177 149.908 36.0458C148.697 35.8739 148.697 35.5927 149.908 35.4209C151.118 35.249 152.249 34.1181 152.421 32.9078Z" fill="#FF8600"/>
<path d="M193.421 14.9078C193.593 13.6974 193.874 13.6974 194.046 14.9078C194.218 16.1181 195.349 17.249 196.559 17.4209C197.769 17.5927 197.769 17.8739 196.559 18.0458C195.349 18.2177 194.218 19.3485 194.046 20.5589C193.874 21.7693 193.593 21.7693 193.421 20.5589C193.249 19.3485 192.118 18.2177 190.908 18.0458C189.697 17.8739 189.697 17.5927 190.908 17.4209C192.118 17.249 193.249 16.1181 193.421 14.9078Z" fill="#FF8600"/>
<path d="M59.4209 92.9078C59.5927 91.6974 59.8739 91.6974 60.0458 92.9078C60.2177 94.1181 61.3485 95.249 62.5589 95.4209C63.7693 95.5927 63.7693 95.8739 62.5589 96.0458C61.3485 96.2177 60.2177 97.3485 60.0458 98.5589C59.8739 99.7693 59.5927 99.7693 59.4209 98.5589C59.249 97.3485 58.1181 96.2177 56.9078 96.0458C55.6974 95.8739 55.6974 95.5927 56.9078 95.4209C58.1181 95.249 59.249 94.1181 59.4209 92.9078Z" fill="#FF8600"/>
<path d="M191.398 115.167C191.619 113.611 191.981 113.611 192.202 115.167C192.423 116.723 193.877 118.177 195.433 118.398C196.989 118.619 196.989 118.981 195.433 119.202C193.877 119.423 192.423 120.877 192.202 122.433C191.981 123.989 191.619 123.989 191.398 122.433C191.177 120.877 189.723 119.423 188.167 119.202C186.611 118.981 186.611 118.619 188.167 118.398C189.723 118.177 191.177 116.723 191.398 115.167Z" fill="#FF8600"/>
<path d="M203.267 55.5333C200.914 55.5333 199 53.6193 199 51.2665C199 48.9137 200.914 47 203.267 47C205.619 47 207.533 48.914 207.533 51.2665C207.533 53.6191 205.619 55.5333 203.267 55.5333ZM203.267 48.0241C201.479 48.0241 200.024 49.4788 200.024 51.2665C200.024 53.0543 201.479 54.5093 203.267 54.5093C205.055 54.5093 206.509 53.0546 206.509 51.2665C206.509 49.4785 205.055 48.0241 203.267 48.0241Z" fill="#FF470D"/>
<path d="M40.5003 54C39.6732 54 39.0002 53.3271 39.0002 52.5C39.0002 51.6728 39.6732 51 40.5003 51C41.3274 51 42.0002 51.6729 42.0002 52.5C42.0002 53.327 41.3274 54 40.5003 54ZM40.5003 51.36C39.8717 51.36 39.3603 51.8714 39.3603 52.5C39.3603 53.1285 39.8717 53.64 40.5003 53.64C41.1289 53.64 41.6402 53.1286 41.6402 52.5C41.6402 51.8714 41.1288 51.36 40.5003 51.36Z" fill="#FF470D"/>
<path d="M98.3983 116.167C98.6192 114.611 98.9808 114.611 99.2017 116.167C99.4227 117.723 100.877 119.177 102.433 119.398C103.989 119.619 103.989 119.981 102.433 120.202C100.877 120.423 99.4227 121.877 99.2017 123.433C98.9808 124.989 98.6192 124.989 98.3983 123.433C98.1773 121.877 96.7233 120.423 95.1671 120.202C93.611 119.981 93.611 119.619 95.1671 119.398C96.7233 119.177 98.1773 117.723 98.3983 116.167Z" fill="#FF8600"/>
<path d="M180.197 149.014L147.82 199.819C146.955 201.177 147.355 202.978 148.714 203.842L184.245 226.436C185.604 227.299 187.406 226.899 188.271 225.542L220.648 174.737C221.513 173.379 221.113 171.579 219.754 170.715L184.223 148.121C182.864 147.257 181.062 147.657 180.197 149.014Z" fill="white"/>
<path d="M185.799 227.232C185.202 227.232 184.6 227.069 184.06 226.725L148.536 204.121C147.025 203.16 146.579 201.151 147.54 199.641L179.902 148.827C180.366 148.098 181.089 147.593 181.938 147.404C182.787 147.216 183.655 147.368 184.384 147.832L219.909 170.436C220.638 170.899 221.143 171.622 221.332 172.471C221.52 173.319 221.369 174.188 220.905 174.916L188.543 225.731C187.925 226.701 186.873 227.232 185.799 227.232L185.799 227.232ZM184.416 226.167C185.618 226.931 187.219 226.576 187.984 225.375L220.346 174.56C220.714 173.981 220.835 173.29 220.685 172.614C220.535 171.938 220.133 171.363 219.553 170.994L184.028 148.39C183.449 148.021 182.757 147.901 182.081 148.051C181.405 148.201 180.83 148.603 180.461 149.182L148.099 199.997C147.73 200.576 147.61 201.267 147.76 201.943C147.91 202.619 148.312 203.194 148.891 203.563L184.416 226.167Z" fill="#FF450D"/>
<path d="M161.733 190.821L155.382 200.786C155.146 201.156 155.255 201.648 155.626 201.883L161.396 205.553C161.767 205.788 162.259 205.679 162.494 205.309L168.845 195.344C169.081 194.974 168.972 194.482 168.601 194.247L162.831 190.577C162.46 190.342 161.969 190.451 161.733 190.821Z" fill="white"/>
<path d="M161.819 206.009C161.613 206.009 161.404 205.952 161.216 205.833L155.447 202.162C154.923 201.828 154.768 201.131 155.102 200.607L161.449 190.641C161.61 190.388 161.861 190.212 162.155 190.147C162.45 190.082 162.751 190.134 163.004 190.295L168.774 193.966C169.027 194.127 169.202 194.378 169.267 194.672C169.333 194.966 169.28 195.268 169.119 195.521L162.772 205.488C162.557 205.824 162.192 206.009 161.819 206.009ZM161.572 205.274C161.788 205.411 162.075 205.348 162.213 205.132L168.56 195.165C168.626 195.061 168.648 194.937 168.621 194.816C168.594 194.694 168.522 194.591 168.418 194.525L162.649 190.854C162.545 190.788 162.421 190.767 162.299 190.793C162.178 190.82 162.074 190.892 162.008 190.996L155.661 200.963C155.595 201.067 155.573 201.191 155.6 201.312C155.627 201.434 155.699 201.537 155.803 201.603L161.572 205.274V205.274Z" fill="#FF450D"/>
<path d="M168.702 210.795L168.179 211.63L168.689 212.066C168.714 212.012 168.737 211.96 168.788 211.879C168.893 211.711 169.035 211.565 169.201 211.481C169.406 211.37 169.683 211.347 169.959 211.519C170.388 211.787 170.495 212.327 170.198 212.802C170.049 213.042 169.855 213.202 169.722 213.264L169.542 213.049C169.653 212.992 169.832 212.855 169.957 212.656C170.131 212.377 170.099 212.024 169.806 211.84C169.52 211.667 169.2 211.729 168.926 212.167C168.848 212.292 168.801 212.398 168.76 212.485L167.797 211.687L168.452 210.639L168.702 210.795V210.795Z" fill="#FF8600"/>
<path d="M169.818 209.072L169.814 209.079L169.781 209.588L169.52 209.505L169.562 208.866L169.72 208.613L171.912 209.982L171.733 210.268L169.818 209.072L169.818 209.072Z" fill="#FF8600"/>
<path d="M171.707 205.989L171.185 206.825L171.695 207.261C171.72 207.206 171.743 207.154 171.793 207.074C171.899 206.905 172.041 206.76 172.206 206.675C172.411 206.565 172.689 206.541 172.965 206.714C173.393 206.981 173.501 207.522 173.204 207.997C173.054 208.236 172.861 208.396 172.728 208.458L172.548 208.243C172.659 208.186 172.838 208.049 172.962 207.851C173.137 207.571 173.105 207.218 172.811 207.035C172.526 206.861 172.206 206.924 171.932 207.362C171.854 207.486 171.806 207.593 171.766 207.68L170.803 206.881L171.458 205.833L171.707 205.989V205.989Z" fill="#FF8600"/>
<path d="M174.333 206.107L174.151 205.993L174.07 205.619C173.887 204.727 173.762 204.298 173.434 204.088C173.211 203.949 172.938 203.928 172.734 204.255C172.61 204.454 172.607 204.682 172.629 204.836L172.36 204.8C172.327 204.568 172.368 204.293 172.526 204.041C172.82 203.569 173.268 203.572 173.582 203.768C173.986 204.021 174.13 204.518 174.287 205.258L174.339 205.534L174.346 205.538L174.961 204.554L175.207 204.708L174.333 206.107L174.333 206.107Z" fill="#FF8600"/>
<path d="M176.437 198.708C176.396 198.767 176.351 198.846 176.312 198.939C176.098 199.452 176.285 199.911 176.614 200.187L176.62 200.177C176.548 199.986 176.547 199.732 176.698 199.49C176.941 199.102 177.391 199.004 177.819 199.271C178.221 199.522 178.421 200.027 178.136 200.482C177.843 200.95 177.288 201.029 176.718 200.673C176.286 200.404 176.043 200.036 175.962 199.686C175.897 199.392 175.937 199.08 176.076 198.783C176.118 198.687 176.161 198.61 176.194 198.556L176.437 198.708ZM177.649 199.582C177.335 199.386 177.035 199.447 176.864 199.72C176.752 199.898 176.76 200.133 176.868 200.313C176.889 200.354 176.925 200.395 176.979 200.429C177.344 200.647 177.713 200.648 177.907 200.338C178.067 200.082 177.962 199.778 177.649 199.582Z" fill="#FF8600"/>
<path d="M178.566 198.473C178.29 198.301 178.198 198.013 178.251 197.672L178.239 197.669C177.973 197.84 177.719 197.827 177.53 197.709C177.183 197.492 177.13 197.051 177.37 196.667C177.636 196.243 178.035 196.197 178.308 196.367C178.493 196.483 178.635 196.698 178.595 197.048L178.605 197.054C178.883 196.849 179.181 196.8 179.447 196.966C179.828 197.205 179.88 197.691 179.619 198.109C179.332 198.568 178.887 198.673 178.566 198.473H178.566ZM177.685 197.417C177.904 197.553 178.125 197.462 178.35 197.251C178.404 197.023 178.36 196.794 178.161 196.669C177.986 196.56 177.738 196.55 177.572 196.817C177.418 197.063 177.496 197.299 177.685 197.417V197.417ZM179.29 197.285C179.024 197.119 178.78 197.224 178.51 197.468C178.424 197.771 178.506 198.014 178.715 198.145C178.932 198.294 179.233 198.247 179.407 197.968C179.574 197.701 179.516 197.427 179.29 197.285Z" fill="#FF8600"/>
<path d="M179.338 193.6L179.534 193.722L180.934 195.923L180.742 196.229L179.397 194.068L179.391 194.064L178.721 195.136L178.475 194.982L179.338 193.6L179.338 193.6Z" fill="#FF8600"/>
<path d="M181.848 193.705C181.954 193.654 182.161 193.511 182.289 193.306C182.528 192.925 182.358 192.655 182.174 192.545C181.865 192.357 181.561 192.551 181.382 192.837L181.279 193.003L181.056 192.864L181.16 192.698C181.295 192.483 181.354 192.14 181.094 191.978C180.919 191.869 180.694 191.883 180.524 192.156C180.414 192.331 180.386 192.548 180.395 192.685L180.131 192.627C180.118 192.46 180.173 192.185 180.32 191.949C180.59 191.518 180.968 191.482 181.235 191.649C181.461 191.79 181.568 192.045 181.498 192.375L181.504 192.38C181.727 192.144 182.066 192.051 182.373 192.243C182.723 192.462 182.86 192.926 182.531 193.452C182.377 193.698 182.165 193.865 182.027 193.929L181.848 193.705L181.848 193.705Z" fill="#FF8600"/>
<path d="M188.204 184.561C188.251 184.502 188.29 184.423 188.344 184.316C188.427 184.129 188.458 183.923 188.418 183.725C188.377 183.498 188.25 183.273 188.015 183.071L188.009 183.081C188.082 183.295 188.06 183.525 187.923 183.744C187.676 184.138 187.222 184.205 186.848 183.972C186.433 183.713 186.256 183.185 186.536 182.737C186.817 182.289 187.353 182.24 187.913 182.589C188.395 182.891 188.631 183.263 188.705 183.609C188.765 183.881 188.721 184.177 188.6 184.429C188.55 184.548 188.494 184.644 188.447 184.713L188.204 184.561V184.561ZM187.011 183.666C187.284 183.836 187.579 183.791 187.739 183.535C187.863 183.336 187.863 183.12 187.78 182.961C187.763 182.927 187.736 182.896 187.688 182.866C187.314 182.633 186.941 182.592 186.747 182.902C186.589 183.155 186.7 183.472 187.011 183.666V183.666Z" fill="#FF8600"/>
<path d="M189.51 182.178C189.617 182.127 189.823 181.984 189.951 181.779C190.19 181.398 190.021 181.128 189.836 181.018C189.527 180.83 189.223 181.024 189.044 181.31L188.941 181.475L188.718 181.336L188.822 181.171C188.957 180.956 189.016 180.613 188.756 180.451C188.581 180.342 188.356 180.356 188.186 180.629C188.076 180.804 188.048 181.021 188.057 181.158L187.793 181.1C187.78 180.933 187.835 180.658 187.982 180.422C188.252 179.991 188.63 179.955 188.897 180.122C189.123 180.263 189.23 180.518 189.16 180.848L189.166 180.852C189.389 180.617 189.728 180.524 190.035 180.716C190.386 180.935 190.522 181.399 190.193 181.925C190.039 182.171 189.827 182.338 189.689 182.402L189.51 182.178L189.51 182.178Z" fill="#FF8600"/>
<path d="M191.309 180.058L191.127 179.945L191.047 179.571C190.864 178.679 190.739 178.249 190.41 178.039C190.188 177.901 189.915 177.88 189.71 178.207C189.586 178.406 189.584 178.634 189.605 178.788L189.337 178.751C189.304 178.52 189.344 178.245 189.502 177.992C189.797 177.521 190.245 177.524 190.559 177.72C190.963 177.972 191.107 178.47 191.263 179.209L191.315 179.486L191.322 179.49L191.937 178.506L192.183 178.66L191.309 180.058L191.309 180.058Z" fill="#FF8600"/>
<path d="M192.603 175.501C193.348 175.966 193.586 176.499 193.283 176.984C193.015 177.412 192.433 177.452 191.704 177.006C190.969 176.547 190.762 175.977 191.041 175.532C191.329 175.071 191.905 175.065 192.603 175.501ZM191.893 176.711C192.462 177.067 192.896 177.094 193.064 176.824C193.254 176.521 192.99 176.155 192.431 175.806C191.891 175.469 191.451 175.386 191.259 175.692C191.097 175.952 191.296 176.339 191.893 176.711Z" fill="#FF8600"/>
<path d="M196.621 171.829L196.024 171.456L195.388 172.474L195.192 172.351L194.404 170.5L194.604 170.18L195.966 171.031L196.158 170.724L196.391 170.869L196.199 171.176L196.796 171.549L196.621 171.829H196.621ZM195.791 171.311L195.06 170.854C194.945 170.782 194.833 170.707 194.722 170.629L194.716 170.639C194.802 170.786 194.863 170.899 194.926 171.023L195.336 172.024L195.343 172.028L195.791 171.311H195.791Z" fill="#FF8600"/>
<path d="M197.254 170.059C197.36 170.009 197.567 169.866 197.695 169.66C197.933 169.279 197.764 169.01 197.58 168.9C197.271 168.711 196.967 168.906 196.788 169.192L196.685 169.357L196.462 169.218L196.566 169.053C196.7 168.837 196.76 168.495 196.5 168.333C196.325 168.223 196.1 168.238 195.93 168.511C195.82 168.686 195.792 168.903 195.801 169.039L195.537 168.982C195.524 168.815 195.579 168.54 195.726 168.304C195.996 167.872 196.374 167.837 196.641 168.003C196.866 168.144 196.974 168.399 196.904 168.73L196.91 168.734C197.133 168.498 197.472 168.406 197.779 168.597C198.13 168.816 198.266 169.281 197.937 169.806C197.783 170.052 197.571 170.22 197.433 170.283L197.254 170.059L197.254 170.059Z" fill="#FF8600"/>
<path d="M199.053 167.94L198.871 167.826L198.791 167.452C198.608 166.56 198.482 166.131 198.154 165.921C197.932 165.782 197.659 165.761 197.454 166.088C197.33 166.287 197.328 166.515 197.349 166.669L197.081 166.633C197.048 166.401 197.088 166.126 197.246 165.874C197.541 165.402 197.989 165.405 198.302 165.601C198.707 165.854 198.851 166.351 199.007 167.091L199.059 167.367L199.066 167.371L199.681 166.387L199.927 166.541L199.053 167.94L199.053 167.94Z" fill="#FF8600"/>
<path d="M200.555 165.537L200.373 165.423L200.293 165.049C200.11 164.157 199.985 163.728 199.656 163.518C199.434 163.379 199.161 163.358 198.956 163.685C198.832 163.884 198.83 164.112 198.851 164.266L198.583 164.23C198.55 163.998 198.59 163.724 198.748 163.471C199.043 162.999 199.491 163.002 199.805 163.198C200.209 163.451 200.353 163.948 200.509 164.688L200.562 164.964L200.568 164.969L201.183 163.985L201.43 164.138L200.555 165.537L200.555 165.537Z" fill="#FF8600"/>
<path d="M146.795 189.647C146.702 190.129 146.255 190.372 142.106 191.225H122.318C123.141 189.511 125.207 185.209 129.03 183.332C136.518 179.657 147.31 186.98 146.796 189.647H146.795Z" fill="#FF470D"/>
<path d="M143.997 145.884C142.974 146.704 143.734 147.428 142.032 150.03C140.625 152.182 139.621 152.428 138.976 154.067C138.169 156.117 138.789 158.148 138.976 158.759C140.501 163.755 147.035 165.591 149.127 166.178C151.408 166.819 156.168 168.156 161.135 165.742C164.796 163.962 166.607 161.098 167.466 159.741C168.508 158.093 170.615 154.761 169.431 152.976C168.74 151.935 167.471 152.236 163.099 151.012C162.672 150.892 161.577 150.532 159.388 149.812C149.156 146.445 145.917 144.345 143.997 145.884H143.997Z" fill="white"/>
<path d="M154.987 167.296C152.494 167.296 150.39 166.704 149.084 166.338C146.929 165.732 140.371 163.89 138.819 158.807C138.272 157.018 138.274 155.403 138.823 154.007C139.186 153.084 139.649 152.598 140.236 151.983C140.717 151.479 141.262 150.907 141.895 149.94C142.786 148.578 142.989 147.743 143.138 147.134C143.274 146.576 143.373 146.174 143.895 145.755C145.33 144.604 147.332 145.335 152.167 147.104C154.087 147.805 156.475 148.679 159.441 149.655L159.455 149.659C161.63 150.375 162.722 150.734 163.145 150.853C164.807 151.318 166.03 151.564 166.922 151.744C168.421 152.046 169.105 152.184 169.57 152.885C170.814 154.759 168.648 158.183 167.607 159.829C166.732 161.212 164.912 164.091 161.208 165.891C159.031 166.949 156.895 167.296 154.987 167.296H154.987ZM144.102 146.013C143.668 146.361 143.59 146.682 143.46 147.212C143.306 147.845 143.094 148.711 142.172 150.121C141.522 151.114 140.966 151.697 140.476 152.211C139.914 152.8 139.47 153.266 139.131 154.128C138.61 155.452 138.611 156.994 139.135 158.71C140.635 163.62 147.062 165.426 149.173 166.019C151.439 166.655 156.153 167.98 161.063 165.593C164.682 163.834 166.469 161.01 167.327 159.652C168.331 158.065 170.419 154.763 169.294 153.068C168.905 152.481 168.305 152.36 166.857 152.069C165.959 151.888 164.73 151.64 163.056 151.172C162.626 151.051 161.531 150.691 159.351 149.974L159.338 149.969C156.366 148.992 153.975 148.117 152.054 147.415C147.342 145.692 145.392 144.979 144.102 146.013L144.102 146.013Z" fill="#E81400"/>
<path d="M148.691 147.848C148.492 147.891 143.919 148.823 141.486 145.884C141.232 145.577 139.916 143.984 140.286 142.065C140.682 140.01 142.813 138.68 144.543 138.356C146.622 137.966 147.254 139.193 149.236 138.683C151.13 138.196 151.065 136.945 152.839 136.282C155.046 135.458 157.356 136.571 160.152 137.919C162.751 139.172 164.447 140.621 165.61 141.629C167.259 143.057 168.863 144.472 170.195 146.866C170.748 147.86 171.584 149.398 171.832 151.558C171.984 152.887 171.848 153.874 171.614 155.486C171.176 158.494 171.013 160.005 170.304 160.941C168.968 162.702 167.794 161.703 164.955 163.996C163.53 165.147 162.984 166.078 161.462 166.396C161.284 166.433 159.497 166.788 158.951 165.96C158.437 165.179 159.31 163.776 159.716 163.123C160.293 162.195 160.631 162.153 161.68 160.723C162.428 159.703 162.263 159.716 162.663 159.304C163.722 158.215 164.599 158.421 165.501 157.559C165.83 157.244 166.696 156.401 166.592 155.267C166.52 154.48 165.983 153.58 165.064 153.304C164.041 152.995 162.96 153.584 162.554 154.285C162.245 154.817 162.423 155.242 162.008 155.704C161.78 155.958 161.251 156.36 160.807 156.249C159.707 155.977 160.507 152.898 158.624 151.23C158.412 151.043 157.864 150.778 156.768 150.248C156.409 150.075 155.245 149.522 153.603 148.939C152.806 148.657 152.278 148.469 151.529 148.284C150.381 148.001 149.397 147.893 148.691 147.848Z" fill="#FF470D"/>
<path d="M142.82 160.187C143.124 159.88 143.491 159.626 143.9 159.461C144.001 159.416 144.107 159.385 144.212 159.35C144.319 159.323 144.426 159.293 144.535 159.276C144.644 159.253 144.756 159.247 144.866 159.236C144.977 159.233 145.089 159.228 145.2 159.237C145.645 159.263 146.086 159.407 146.453 159.658C146.821 159.908 147.113 160.255 147.302 160.644C147.042 160.299 146.731 160.001 146.37 159.789C146.324 159.764 146.28 159.737 146.232 159.715C146.186 159.691 146.139 159.668 146.092 159.648C146.045 159.625 145.995 159.61 145.947 159.591C145.898 159.573 145.85 159.555 145.799 159.542C145.601 159.48 145.395 159.447 145.188 159.435C145.084 159.425 144.98 159.429 144.876 159.43C144.772 159.438 144.668 159.444 144.565 159.461C144.461 159.472 144.359 159.497 144.257 159.518L144.105 159.56C144.054 159.572 144.004 159.589 143.954 159.606C143.553 159.737 143.177 159.943 142.82 160.187V160.187Z" fill="#E81400"/>
<path d="M141.051 160.395C136.735 158.746 135.52 158.988 131.664 157.013C130.379 156.355 129.999 156.064 126.643 154.285C125.151 153.495 123.829 152.849 121.185 151.558C117.839 149.924 117.237 149.689 116.273 149.703C115.721 149.711 113.054 149.748 112.016 151.776C111.429 152.92 111.873 154.102 112.766 156.41C113.891 159.32 115.463 161.487 117.146 163.778C117.891 164.791 118.263 165.298 118.565 165.632C122.991 170.533 129.113 169.151 130.463 172.615C130.977 173.933 130.591 175.416 130.354 176.325C129.958 177.844 129.398 178.132 128.171 180.689C127.331 182.441 126.91 183.317 126.752 184.508C126.686 184.999 126.408 187.088 127.407 188.982C128.113 190.322 129.372 191.396 132.865 192.691C137.079 194.254 140.607 194.676 142.361 194.874C152.512 196.015 151.162 194.799 155.133 195.855C155.679 196.001 156.818 196.328 157.643 195.746C158.561 195.1 158.032 193.754 158.407 191.164C158.879 187.911 160.181 187.238 160.045 184.508C159.971 183.035 159.267 182.012 159.499 181.89C159.745 181.76 160.376 182.942 161.9 184.508C162.943 185.579 163.222 185.616 165.721 187.781C167 188.89 167.218 189.132 167.686 189.527C170.046 191.52 173.621 192.228 180.675 193.564C181.652 193.749 182.527 193.902 183.404 193.455C185.003 192.64 186.378 190.362 185.587 188.436C185.144 187.357 184.152 186.805 183.732 186.581C175.982 182.455 173.534 181.227 171.288 179.708C170.645 179.272 168.785 177.672 165.066 174.47C161.224 171.163 161.114 170.932 159.826 169.997C157.37 168.213 156.277 167.972 150.985 165.414C143.489 161.793 144.558 161.735 141.051 160.395H141.051Z" fill="#FF8600"/>
<path d="M156.47 196.244C155.943 196.244 155.447 196.111 155.136 196.028L155.09 196.016C153.213 195.516 152.557 195.53 151.249 195.558C149.815 195.589 147.649 195.635 142.342 195.038C140.786 194.863 137.141 194.453 132.807 192.847C129.145 191.489 127.941 190.351 127.26 189.059C126.793 188.174 126.298 186.662 126.587 184.487C126.75 183.269 127.175 182.383 128.021 180.618C128.556 179.504 128.962 178.822 129.288 178.275C129.702 177.581 129.975 177.122 130.193 176.283C130.421 175.408 130.803 173.944 130.309 172.676C129.687 171.082 128 170.559 125.865 169.897C123.593 169.193 120.766 168.317 118.442 165.743C118.136 165.405 117.764 164.899 117.023 163.89L117.012 163.876C115.417 161.705 113.767 159.46 112.611 156.47C111.727 154.185 111.24 152.926 111.868 151.7C112.567 150.336 114.13 149.568 116.27 149.537C117.257 149.523 117.862 149.751 121.257 151.409C123.899 152.699 125.225 153.347 126.72 154.139C128.602 155.137 129.551 155.668 130.245 156.056C130.786 156.359 131.177 156.578 131.739 156.866C134.013 158.03 135.39 158.427 136.985 158.887C138.093 159.206 139.349 159.568 141.11 160.241C142.874 160.915 143.487 161.266 144.601 161.904C145.68 162.521 147.31 163.455 151.057 165.265C152.59 166.006 153.778 166.556 154.734 166.998C157.091 168.089 158.166 168.587 159.924 169.863C160.705 170.43 161.045 170.73 162.052 171.621C162.725 172.215 163.646 173.03 165.174 174.345L165.18 174.35C168.886 177.54 170.746 179.141 171.381 179.57C173.218 180.814 175.242 181.887 180.132 184.481C181.208 185.052 182.424 185.697 183.81 186.435C184.169 186.627 185.263 187.209 185.741 188.373C186.556 190.36 185.203 192.723 183.48 193.603C182.534 194.085 181.574 193.903 180.644 193.727C173.794 192.43 170.021 191.715 167.579 189.654C167.378 189.484 167.225 189.345 167.013 189.152C166.732 188.895 166.347 188.544 165.612 187.907C164.494 186.938 163.819 186.394 163.326 185.997C162.706 185.497 162.364 185.222 161.782 184.624C161.058 183.88 160.538 183.228 160.158 182.751C159.969 182.514 159.776 182.271 159.646 182.14C159.675 182.239 159.719 182.367 159.76 182.485C159.923 182.95 160.168 183.653 160.21 184.5C160.286 186.031 159.922 186.928 159.501 187.966C159.164 188.796 158.782 189.736 158.571 191.188C158.431 192.155 158.418 192.955 158.408 193.598C158.39 194.702 158.378 195.431 157.739 195.882C157.35 196.156 156.9 196.244 156.47 196.244L156.47 196.244ZM151.994 195.216C152.89 195.216 153.654 195.291 155.175 195.696L155.222 195.708C155.776 195.856 156.809 196.132 157.548 195.611C158.05 195.257 158.06 194.631 158.076 193.593C158.087 192.94 158.1 192.129 158.243 191.14C158.46 189.649 158.849 188.689 159.194 187.841C159.601 186.84 159.952 185.975 159.879 184.517C159.839 183.717 159.603 183.041 159.448 182.594C159.294 182.154 159.193 181.864 159.421 181.743C159.672 181.611 159.891 181.884 160.417 182.545C160.793 183.016 161.307 183.661 162.019 184.393C162.587 184.977 162.923 185.247 163.534 185.739C164.029 186.138 164.707 186.684 165.829 187.656C166.567 188.296 166.954 188.649 167.237 188.907C167.445 189.098 167.596 189.235 167.792 189.401C170.072 191.325 173.399 192.018 180.706 193.402C181.621 193.575 182.484 193.738 183.329 193.308C184.921 192.496 186.159 190.267 185.434 188.499C185.001 187.445 183.987 186.905 183.654 186.727C182.268 185.99 181.052 185.345 179.976 184.774C175.075 182.174 173.047 181.098 171.195 179.845C170.544 179.404 168.679 177.799 164.963 174.601L164.958 174.596C163.428 173.279 162.506 172.464 161.833 171.869C160.834 170.986 160.497 170.689 159.729 170.131C157.998 168.874 156.931 168.38 154.594 167.299C153.638 166.856 152.448 166.305 150.912 165.563C147.156 163.748 145.519 162.811 144.436 162.191C143.337 161.561 142.732 161.215 140.992 160.55C139.244 159.882 137.995 159.522 136.893 159.205C135.282 158.741 133.891 158.34 131.588 157.16C131.021 156.87 130.627 156.65 130.083 156.345C129.391 155.958 128.444 155.428 126.565 154.432C125.075 153.642 123.751 152.995 121.112 151.706C117.779 150.079 117.191 149.857 116.275 149.868C114.264 149.897 112.803 150.601 112.163 151.851C111.625 152.901 112.007 153.989 112.92 156.351C114.061 159.3 115.697 161.526 117.279 163.68L117.29 163.694C118.024 164.694 118.393 165.195 118.688 165.522C120.952 168.028 123.614 168.853 125.963 169.581C128.096 170.242 129.938 170.813 130.617 172.556C131.15 173.923 130.752 175.453 130.514 176.367C130.284 177.251 130.001 177.726 129.573 178.444C129.25 178.986 128.848 179.66 128.32 180.761C127.488 182.495 127.071 183.365 126.916 184.53C126.638 186.619 127.109 188.062 127.553 188.905C128.199 190.129 129.359 191.215 132.922 192.536C137.218 194.129 140.835 194.536 142.38 194.709C147.664 195.303 149.817 195.257 151.242 195.227C151.513 195.221 151.758 195.216 151.994 195.216L151.994 195.216Z" fill="white"/>
<path d="M128 170.479C128.381 170.515 128.753 170.577 129.123 170.645C129.493 170.713 129.86 170.789 130.226 170.868L131.32 171.11C131.503 171.149 131.685 171.188 131.868 171.222C132.052 171.257 132.234 171.285 132.425 171.287C132.246 171.359 132.048 171.374 131.857 171.384C131.664 171.391 131.472 171.383 131.282 171.367C130.901 171.335 130.526 171.272 130.156 171.192C129.786 171.111 129.42 171.012 129.06 170.896C128.7 170.779 128.344 170.647 128 170.479H128Z" fill="white"/>
<path d="M108.248 146.329C110.771 143.956 112.274 143.777 113.183 144.06C114.302 144.408 115.1 145.637 115.65 145.342C116.137 145.082 115.737 144.001 116.44 143.468C116.812 143.186 117.415 143.116 117.723 143.369C118.116 143.693 117.895 144.432 117.723 145.638C117.417 147.777 117.764 147.992 117.526 148.795C116.94 150.773 113.817 153.144 111.012 151.952C109.044 151.117 107.824 148.78 108.248 146.329L108.248 146.329Z" fill="white"/>
<path d="M112.599 152.436C112.026 152.436 111.469 152.326 110.948 152.105C108.862 151.219 107.658 148.778 108.086 146.301L108.095 146.246L108.136 146.208C110.199 144.268 111.915 143.492 113.233 143.902C113.776 144.07 114.23 144.422 114.631 144.733C115.028 145.04 115.37 145.305 115.573 145.196C115.721 145.118 115.752 144.868 115.789 144.579C115.841 144.173 115.905 143.667 116.341 143.336C116.744 143.03 117.438 142.919 117.829 143.241C118.223 143.566 118.128 144.153 117.984 145.043C117.953 145.238 117.92 145.44 117.888 145.662C117.723 146.819 117.751 147.402 117.771 147.828C117.788 148.191 117.801 148.453 117.686 148.842C117.334 150.028 116.157 151.269 114.755 151.93C114.042 152.266 113.308 152.436 112.598 152.436H112.599ZM108.403 146.411C108.028 148.72 109.146 150.98 111.078 151.8C112.459 152.387 113.763 152.032 114.614 151.631C115.935 151.008 117.042 149.849 117.368 148.748C117.468 148.412 117.457 148.186 117.44 147.844C117.419 147.405 117.39 146.804 117.56 145.615C117.592 145.39 117.627 145.178 117.657 144.99C117.783 144.213 117.866 143.7 117.619 143.497C117.382 143.302 116.869 143.351 116.541 143.6C116.216 143.847 116.166 144.24 116.118 144.62C116.072 144.985 116.028 145.329 115.73 145.488C115.338 145.698 114.916 145.372 114.428 144.994C114.049 144.701 113.62 144.369 113.135 144.218C111.947 143.848 110.355 144.586 108.403 146.411L108.403 146.411Z" fill="#E81400"/>
<path d="M184.662 186.477C184.815 186.349 186.516 184.961 187.127 185.418C187.471 185.675 187.485 186.529 187.127 186.897C186.944 187.086 186.682 187.114 186.688 187.139C186.696 187.172 187.449 186.802 188.202 186.876C188.882 186.942 189.601 187.376 189.978 188.016C190.74 189.309 189.754 190.861 189.583 191.129C188.675 192.557 187.118 192.863 186.886 192.904C185.147 193.217 182.819 192.432 182.324 190.734C181.778 188.865 183.825 187.17 184.662 186.477Z" fill="white"/>
<path d="M186.111 193.137C184.439 193.137 182.605 192.291 182.164 190.781C181.588 188.807 183.667 187.085 184.556 186.349C185.011 185.972 186.55 184.78 187.225 185.285C187.407 185.421 187.525 185.681 187.55 185.998C187.568 186.226 187.538 186.516 187.419 186.761C187.661 186.713 187.939 186.684 188.217 186.711C188.981 186.786 189.728 187.265 190.12 187.932C190.854 189.179 190.087 190.645 189.723 191.218C188.826 192.628 187.346 192.99 186.914 193.068C186.655 193.114 186.385 193.137 186.111 193.137L186.111 193.137ZM184.767 186.604C183.929 187.298 181.967 188.924 182.482 190.688C182.946 192.278 185.159 193.046 186.856 192.742C187.139 192.691 188.598 192.37 189.443 191.04C189.774 190.519 190.476 189.189 189.835 188.1C189.499 187.53 188.836 187.105 188.185 187.041C187.655 186.989 187.107 187.178 186.873 187.259C186.734 187.307 186.682 187.325 186.61 187.286L186.545 187.251L186.527 187.179C186.488 187.022 186.646 186.97 186.698 186.953C186.777 186.927 186.91 186.883 187.007 186.782C187.16 186.625 187.244 186.327 187.22 186.025C187.203 185.808 187.129 185.627 187.027 185.551C186.646 185.266 185.467 186.025 184.767 186.604L184.767 186.604Z" fill="#E81400"/>
</svg>
